<svg width="16" height="13" viewBox="0 0 16 13" fill="none" xmlns="http://www.w3.org/2000/svg">
<path fill-rule="evenodd" clip-rule="evenodd" d="M8.11105 0.313149C8.29488 1.35201 8.8172 2.59486 9.51748 3.88327L8.34608 5.73322L5.98049 2.68742C6.80393 1.62755 7.52805 0.769126 8.02324 0.284973C8.05305 0.255623 8.10377 0.271824 8.11105 0.313149ZM8.08696 6.14412L5.6932 3.06193C5.11231 3.8215 4.4915 4.66724 3.87281 5.54327L6.40346 8.8018L8.08672 6.14412H8.08696ZM3.5983 5.93429C2.20361 7.93172 0.852108 10.0407 0.0307856 11.615C-0.0779258 11.824 0.119071 12.0595 0.343538 11.989C1.47432 11.6345 3.00967 11.317 4.90448 11.1691L6.14398 9.2123L3.5983 5.93453V5.93429ZM11.6542 7.83397C11.3285 8.0467 10.9397 8.17114 10.5215 8.17255C9.48512 8.17607 8.62294 7.42378 8.45623 6.43411C8.45529 6.42847 8.44825 6.42706 8.4452 6.43176L5.46937 11.1301C6.69901 11.0592 8.06764 11.0596 9.56401 11.1646L11.6662 7.84548C11.6711 7.83773 11.6622 7.82881 11.6544 7.83421L11.6542 7.83397ZM12.1492 7.93622C13.5511 9.82047 14.9738 11.4051 15.8066 12.086V12.0858C15.8223 12.0987 15.8094 12.1236 15.7895 12.1191C13.7317 11.6404 11.8226 11.3518 10.079 11.2046L12.1492 7.93622ZM10.5164 6.69296C10.7444 6.69226 10.9424 6.56617 11.0457 6.38021C10.8454 6.08272 10.6491 5.78265 10.4589 5.48117C10.1487 5.50911 9.90596 5.77021 9.9069 6.08789C9.90807 6.42318 10.1811 6.6939 10.5164 6.69273V6.69296ZM14.6648 12.8588C9.89956 11.8952 5.89156 11.6503 0.759348 12.7879C0.672003 12.8071 0.693134 12.9372 0.782123 12.928C5.63633 12.43 8.75961 12.4197 14.6439 12.9996C14.7336 13.0083 14.7533 12.8766 14.6648 12.8588Z" fill="white"/>
</svg>
